<svg height="512pt" viewBox="0 0 512 512" width="512pt" xmlns="http://www.w3.org/2000/svg"><path d="m437.019531 74.980469c-48.351562-48.351563-112.640625-74.980469-181.019531-74.980469s-132.667969 26.628906-181.019531 74.980469c-48.351563 48.351562-74.980469 112.640625-74.980469 181.019531v256h36.609375l141-149h58.390625v50h40v-50h58.390625l141 149h36.609375v-256c0-68.378906-26.628906-132.667969-74.980469-181.019531zm-114.019531 248.019531h-134v-67c0-36.945312 30.054688-67 67-67s67 30.054688 67 67zm149 127.222656-109-115.1875v-79.035156c0-59-48-107-107-107s-107 48-107 107v79.035156l-109 115.1875v-194.222656c0-119.101562 96.898438-216 216-216s216 96.898438 216 216zm-236 .777344h40v61h-40zm0 0"/></svg>